<?xml version="1.0" encoding="utf-8" ?>
<svg xmlns="http://www.w3.org/2000/svg" xmlns:xlink="http://www.w3.org/1999/xlink" width="1024" height="1024">
	<path fill="#FEFEFE" d="M0 0L1024 0L1024 1024L0 1024L0 0Z"/>
	<path fill="#472A48" d="M968.842 33.0385C974.253 34.7161 981.369 38.0192 986.094 41.1413C985.329 46.3107 983.409 51.3937 981.964 56.4105Q979.706 64.269 978.749 72.3893C974.595 106.783 975.868 141.806 973.299 176.335C969.668 225.147 958.749 273.426 945.821 320.537C935.202 359.233 920.408 397.49 900.105 432.182C886.195 455.952 869.213 477.974 851.814 499.26C839.893 513.845 827.99 528.263 815.083 542.008C746.376 615.178 656.167 682.054 569.317 731.766Q517.306 761.591 463.53 788.104C436.309 801.593 408.409 814.267 381.706 828.736C352.379 844.627 326.274 865.696 297.315 882.07C276.838 893.648 253.277 897.109 230.456 890.681C198.67 881.727 175.092 855.203 159.557 827.237C155.318 819.605 152.05 811.487 147.815 803.859C139.622 817.918 125.848 843.582 121.223 858.497C116.56 873.529 115.636 889.456 112.505 904.833C108.401 924.992 92.9559 966.871 79.2415 981.562C78.2146 982.662 76.4391 984.439 74.8462 984.408C69.8115 984.311 40.939 968.285 36.8847 964.382C37.8922 957.914 40.1491 951.392 42.0521 945.133C50.1767 918.41 59.5656 896.323 75.7146 873.439Q82.2329 864.243 89.1458 855.339C92.0888 851.496 95.4813 847.629 97.8668 843.418C114.057 814.837 126.695 784.339 142.639 755.568C137.69 735.933 134.399 715.365 132.818 695.189C131.747 681.525 131.916 667.76 129.561 654.22C128.315 647.061 126.641 639.994 123.708 633.313C122.133 629.726 116.24 624.161 117.295 620.121C117.772 618.295 120.088 616.275 121.676 615.373C124.48 613.782 127.7 613.99 130.69 614.88C142.629 618.433 149.376 626.385 155.173 636.905Q171.716 606.19 189.909 576.422C202.436 555.529 213.313 537.214 228.097 517.548C252.068 485.659 279.89 456.385 308.548 428.672C321.24 416.398 334.885 404.85 348.637 393.784C355.717 388.088 365.45 382.153 371.304 375.431C377.499 368.319 385.047 353.398 390.186 344.907Q406.747 316.92 425.616 290.434C424.002 288.607 421.811 286.464 421.705 283.86C421.631 282.033 422.834 280.506 423.876 279.144C424.762 278.639 425.479 278.304 426.507 278.301C432.001 278.281 450.274 289.048 454.366 293.074C456.134 294.813 457.09 296.427 457.16 298.916C456.819 299.916 456.597 300.409 455.778 301.128C453.704 302.951 450.486 302.478 447.933 302.419C443.331 311.817 437.52 320.574 432.864 329.975C441.545 323.028 450.15 315.913 459.209 309.461C474.179 298.798 489.981 289.403 505.692 279.889C582.944 233.107 666.019 196.172 749.48 161.999C761.712 156.991 774.254 152.801 786.533 147.925C793.69 145.084 800.641 141.717 807.751 138.754C841.901 124.525 876.622 109.604 907.972 89.8144C925.544 78.7219 942.923 65.2832 956.651 49.6126C960.643 45.056 964.26 36.5397 968.497 33.2853C968.609 33.1992 968.727 33.1208 968.842 33.0385Z"/>
	<path fill="#E2697B" d="M963.242 156.943L963.73 157.834C963.5 176.311 959.151 195.407 956.354 213.654C944.168 293.167 928.688 362.043 886.531 431.811C848.833 494.202 801.959 543.513 747.181 591.136Q729.409 606.56 711.038 621.266Q692.667 635.971 673.726 649.935Q654.785 663.899 635.305 677.099Q615.824 690.299 595.834 702.715C573.441 716.544 550.465 729.24 527.406 741.912Q475.709 770.689 421.975 795.453C398.781 806.113 377.02 819.536 352.942 828.238C337.822 833.703 321.852 838.634 306.137 842.051C297.418 843.946 288.366 844.848 279.735 847.062C277.862 847.542 274.861 848.393 273.929 850.278C273.601 850.94 273.882 851.149 274.128 851.775C280.956 855.16 326.507 844.66 336.265 842.382C321.32 854.825 290.48 874.443 271.751 877.617C256.722 880.163 238.945 876.626 226.47 867.711C200.924 849.455 172.18 798.77 167.181 767.659Q171.003 759.685 175.095 751.845C184.433 749.806 194.196 749.296 203.691 748.187Q224.507 745.717 245.189 742.308C263.87 739.207 282.65 736.29 301.239 732.691Q333.749 726.122 365.908 718.004Q408.359 707.856 449.806 694.171C465.626 689.641 481.249 682.702 496.647 676.85C518.059 668.713 539.952 661.225 560.713 651.53C566.508 648.824 595.667 634.386 597.171 630.169C594.463 628.69 586.038 633.508 583.365 634.789C500.127 674.69 405.368 704.221 314.911 722.827C290.397 727.87 265.577 732.753 240.901 736.936C219.922 740.492 198.876 743.359 177.963 747.337C182.343 738.165 185.999 729.023 191.185 720.229C208.209 717.2 225.363 714.878 242.423 712.054Q274.96 706.406 307.366 700.046C397.768 682.006 487.61 656.043 571.287 616.957C589.524 608.438 607.212 598.912 624.93 589.381C672.486 563.8 719.852 533.896 760.558 498.246Q782.011 479.36 801.998 458.929Q821.986 438.499 840.396 416.636C851.676 403.312 863.195 389.733 873.484 375.63Q876.95 370.928 880.301 366.144Q883.653 361.361 886.889 356.498Q890.125 351.635 893.243 346.696Q896.361 341.756 899.359 336.743Q902.357 331.731 905.234 326.647Q908.111 321.564 910.865 316.412Q913.619 311.261 916.248 306.045Q918.877 300.83 921.38 295.552Q923.883 290.274 926.259 284.938Q928.634 279.602 930.881 274.21Q933.127 268.818 935.244 263.374Q937.36 257.93 939.345 252.436Q941.329 246.943 943.181 241.403Q945.034 235.863 946.752 230.281Q948.47 224.698 950.054 219.076Q951.638 213.454 953.086 207.795C957.175 191.388 962.131 173.897 963.242 156.943Z"/>
	<path fill="#472A48" d="M611.725 674.864C613.213 675.117 613.252 675.081 614.251 676.199L614.152 677.194C608.238 683.917 579.06 697.34 569.787 701.919C467.884 752.234 348.743 784.062 236.32 799.182C223.614 800.891 210.784 801.784 198.035 803.131C197.186 803.353 196.985 803.38 196.079 803.215C197.584 801.008 205.377 799.356 207.999 798.726C219.712 795.912 232.454 794.793 244.396 792.983C258.953 790.777 273.444 787.941 287.924 785.274C389.227 766.619 489.568 736.589 582.002 690.735C592.05 685.75 601.866 680.214 611.725 674.864Z"/>
	<path fill="#472A48" d="M927.273 304.365C927.801 308.549 922.768 320.158 921.185 324.353C916.705 336.224 912.215 348.375 907.042 359.949Q898.8 378.021 889.023 395.311Q879.246 412.601 868.009 428.979C841.111 468.93 806.629 505.555 769.296 535.838C764.303 539.887 757.079 547.244 750.8 548.468C750.62 547.611 750.365 547.239 750.729 546.405C752.697 541.893 766.3 531.63 770.852 527.726C785.951 514.78 799.381 500.73 812.979 486.24C823.339 475.202 833.65 464.038 843.255 452.332C865.878 424.762 890.679 387.804 906.313 355.766C914.405 339.184 921.135 321.75 927.273 304.365Z"/>
	<path fill="#472A48" d="M727.864 545.337C728.371 545.354 728.959 545.537 729.458 545.643L729.978 546.711C729.836 547.312 729.865 547.314 729.538 547.967C728.035 550.959 723.935 554.102 721.44 556.394C701.767 574.467 682.069 586.851 659.188 600.333C651.946 604.6 644.1 609.882 636.123 612.618C635.364 612.507 635.12 612.343 634.489 611.943L634.507 611.143C637.873 606.676 658.825 595.199 664.661 591.395Q685.549 577.717 705.632 562.884C713.172 557.201 720.4 551.12 727.864 545.337Z"/>
	<path fill="#FCDFD5" d="M571.274 255.915C588.278 245.309 609.014 236.157 627.216 227.419C685.309 199.53 745.384 175.928 804.96 151.428C842.911 135.821 891.891 115.333 925.175 91.7424C938.245 82.479 951.105 72.0581 961.992 60.2841C965.973 55.9779 968.907 49.8609 973.177 46.1106C974 47.8396 973.72 48.8619 973.101 50.6256C972.083 53.5256 970.692 56.3937 969.936 59.3694C967.11 70.5061 967.143 82.593 965.624 93.9745C964.001 106.14 961.916 118.343 960.131 130.501C956.207 157.233 949.984 184.099 942.539 210.052Q938.619 224.216 933.894 238.132Q929.17 252.048 923.656 265.671Q918.142 279.293 911.857 292.578Q905.572 305.862 898.536 318.765C891.06 332.205 882.528 344.468 873.635 356.975C869.541 362.732 865.782 368.736 861.588 374.419C856.978 380.665 851.896 386.576 847.032 392.626C827.124 417.389 806.452 441.805 783.427 463.755C770.165 476.398 755.707 487.727 741.296 499.006Q722.41 513.796 702.763 527.559Q683.116 541.323 662.763 554.019Q642.411 566.716 621.41 578.31Q600.41 589.904 578.822 600.363Q533.337 621.337 486.306 638.566C473.323 643.326 460.269 648.258 447.07 652.381C429.83 657.767 412.21 662.362 394.741 666.932Q348.117 679.158 300.936 689.016Q250.571 698.826 199.875 706.745C202.24 701.854 204.565 696.957 207.333 692.276C224.253 688.433 241.596 685.927 258.666 682.797Q295.279 676.055 331.545 667.642C352.116 662.854 372.75 657.521 393.093 651.829C403.274 648.98 413.629 644.95 423.982 642.96C425.244 646.205 423.95 650.354 427.838 652.047C432.004 653.861 437.531 652.858 441.554 651.052C443.983 649.962 446.258 648.273 447.149 645.667C447.945 643.343 447.442 641.096 446.309 638.981Q445.72 637.904 445.077 636.858C453.068 633.049 461.862 630.544 470.21 627.603Q487.962 621.245 505.539 614.416C527.721 605.704 552.066 595.066 573.372 584.416C584.111 579.048 594.541 573.099 605.126 567.444C606.197 570.523 606.88 572.891 610.06 574.379C612.926 575.719 616.097 575.629 619.018 574.501C621.889 573.394 624.543 571.189 625.72 568.295C626.528 566.309 626.663 564.015 625.732 562.045C625.024 560.547 623.788 559.43 622.608 558.305C650.558 541.249 680.173 525.569 706.328 505.824C720.928 494.802 734.78 482.821 748.815 471.097C753.429 467.242 758.291 461.721 763.427 458.691C763.412 459.728 763.409 460.969 763.709 461.969C764.3 463.936 766.231 465.94 768.092 466.747C770.687 467.873 774.185 467.544 776.713 466.386C778.753 465.452 781.236 463.533 781.695 461.184C781.941 459.924 781.519 459.029 780.744 458.066C778.312 455.048 771.202 455.154 767.64 455.096C769.887 450.863 784.07 438.73 788.267 434.576C792.354 430.532 796.204 426.241 800.062 421.979C821.973 397.773 842.733 373.485 861.315 346.594C863.918 349.365 867.144 351.807 871.089 352.02C873.312 352.139 875.558 351.462 877.14 349.851C878.087 348.888 878.829 347.548 878.822 346.164C878.814 344.724 878.388 343.551 877.335 342.557C874.286 339.681 869.724 340.414 865.928 340.628C873.43 328.277 881.512 316.174 888.43 303.486C900.268 281.773 911.144 258.272 919.091 234.858C926.621 212.676 931.971 189.253 937.416 166.487C940.224 154.748 946.237 134.557 946.829 123.514C937.462 118.237 924.429 113.808 913.865 112.063C897.942 121.433 881.033 129.248 864.199 136.833C836.054 149.515 807.58 160.912 779.048 172.649C712.102 200.187 644.596 228.49 580.815 262.874C577.698 260.479 574.564 258.071 571.274 255.915Z"/>
	<path fill="#472A48" d="M946.881 81.6002C950.534 81.3703 954.007 81.4845 957.374 83.0801C960.185 84.4127 962.554 86.574 963.527 89.5946C964.184 91.6323 964.027 93.5935 962.961 95.4657C961.26 98.4533 957.594 99.4243 954.509 100.072C950.229 100.314 945.66 100.398 941.697 98.533C939.395 97.4501 937.438 95.6749 936.633 93.2083C936.029 91.3544 936.231 89.4477 937.198 87.7564C939.196 84.2593 943.179 82.5546 946.881 81.6002Z"/>
	<path fill="#FCDFD5" d="M947.441 87.1384C949.98 87.366 952.971 87.8519 954.857 89.7246C955.415 90.2789 955.266 90.5438 955.304 91.2656C954.401 92.5546 953.011 92.8199 951.591 93.3017C948.897 93.1803 945.041 92.9899 943.223 90.6529C942.752 90.0472 942.973 90.0745 943.138 89.1851C944.442 87.9662 945.755 87.6389 947.441 87.1384Z"/>
	<path fill="#FCDFD5" d="M616.521 270.005C622.802 271.297 629.534 275.655 635.45 278.213L697.771 305.434C743.332 325.518 789.42 344.218 835.363 363.397L830.193 371.03C811.484 362.228 791.868 355.173 772.843 347.058C758.271 340.841 640.029 288.238 635.906 288.89L636.25 289.308L636.529 288.632L635.842 288.721C640.668 292.454 647.837 295.24 653.382 297.871Q667.885 304.674 682.318 311.623C729.803 333.369 778.212 353.573 824.9 376.98C819.848 383.27 814.834 389.53 809.458 395.551L645.177 321.22Q624.099 311.536 603.126 301.626C595.357 297.97 587.425 294.477 579.869 290.396C585.186 286.59 591.136 283.524 596.815 280.297C597.108 282.338 597.356 284.232 598.58 285.949C600.392 288.492 603.327 290.075 606.389 290.494C610.524 291.06 615.405 289.781 618.713 287.227C620.505 285.844 621.9 283.94 622.097 281.631C622.753 273.956 616.18 275.617 613.149 272.223C613.788 270.963 615.296 270.558 616.521 270.005Z"/>
	<path fill="#FCDFD5" d="M433.568 296.805C435.457 297.506 437.194 298.361 438.973 299.303C417.058 337.05 393.289 373.513 370.087 410.459L269.099 570.949C257.625 589.539 246.624 608.381 235.333 627.075L204.595 678.989C194.63 695.747 184.39 712.312 175.279 729.565L136.705 803.907C129.026 818.586 119.605 833.499 113.774 848.999C107.955 864.468 106.593 880.349 103.517 896.413C98.6463 921.846 87.3148 952.018 73.2615 973.844C64.9419 970.157 57.0286 965.304 49.1299 960.796Q55.6392 936.32 65.2242 912.876C72.4351 895.041 82.5948 880.034 94.0354 864.665C89.5687 875.997 87.2089 888.193 84.3805 900.017C81.8212 910.715 78.7994 921.767 77.2836 932.653L77.6318 933.152L77.6767 933.953L77.8015 933.988C79.7474 931.538 80.5861 925.908 81.6089 922.743C89.2568 899.082 96.6715 875.4 105.748 852.224C111.35 837.918 119.512 824.069 126.293 810.25C141.09 780.094 155.841 750.045 171.762 720.456C176.812 711.071 182.488 701.999 187.853 692.792L215.152 645.882L237.613 607.796C242.833 598.791 247.761 589.604 253.2 580.727Q273.987 547.025 295.2 513.59C303.961 500.04 313.111 486.736 321.786 473.131C330.289 459.796 338.028 446.004 346.473 432.651L433.568 296.805Z"/>
	<path fill="#FCDFD5" d="M469.236 385.622C479.465 389.883 489.493 395.278 499.512 400.048Q531.854 415.145 563.778 431.106L616.86 457.813C643.73 471.189 670.585 484.388 696.766 499.098C690.323 502.989 684.474 507.935 678.185 512.105C672.156 510.103 666.236 507.256 660.379 504.771C624.55 489.992 589.443 472.655 554.448 456.012Q512.4 436.221 470.955 415.194C458.444 408.889 445.817 402.839 433.514 396.131C437.054 393.133 440.829 390.547 444.668 387.958C445.301 389.245 445.966 390.508 446.833 391.658C448.978 394.507 452.718 396.351 456.213 396.781C459.547 397.191 463.053 396.47 465.66 394.276C468.644 391.765 469 389.298 469.236 385.622Z"/>
	<path fill="#FCDFD5" d="M479.962 490.806C483.491 492.273 487.487 496.029 490.839 498.219C496.839 502.141 503.171 505.703 509.501 509.063C540.007 525.254 571.285 540.211 602.289 555.42C588.185 563.642 573.122 572.479 557.706 578.001C551.823 575.143 545.828 572.492 539.876 569.778C530.309 565.619 520.832 561.258 511.235 557.163C498.043 551.533 484.735 546.146 472.065 539.387C461.706 533.861 452.007 527.503 442.313 520.896C452.228 511.5 463.351 502.508 474.692 494.873C483.236 500.107 491.762 504.893 501.388 507.856C497.784 505.694 477.964 495.965 476.885 493.005L479.962 490.806Z"/>
	<path fill="#FCDFD5" d="M654.275 376.958C663.655 382.756 674.718 387.12 684.73 391.895C714.398 406.045 744.645 418.854 774.798 431.904C766.112 442.173 755.296 451.063 745.306 460.044L740.345 457.725C729.774 452.291 718.768 447.536 708.069 442.334L615.891 397.864Q635.257 387.73 654.275 376.958Z"/>
	<path fill="#FCDFD5" d="M515.801 465.899C521.561 467.064 530.237 471.993 535.793 474.617Q559.441 485.827 582.956 497.312C605.344 507.99 628.828 517.015 650.316 529.469C640.413 536.097 628.808 541.356 618.296 547.008L612.805 549.832C587.907 538.969 563.717 525.989 539.536 513.62C521.697 504.495 503.8 496.38 486.783 485.697C496.649 479.486 506.173 472.491 515.801 465.899Z"/>
	<path fill="#FCDFD5" d="M352.47 404.487L352.853 404.979C351.203 408.926 348.251 412.711 345.935 416.31C341.604 423.041 337.501 430.169 332.458 436.386C327.005 443.106 320.144 448.972 314.113 455.198C298.192 471.635 281.819 487.827 266.889 505.17C246.497 528.859 230.401 553.415 214.296 580.086C210.773 585.92 193.509 612.419 194.942 617.15C196.698 622.953 207.882 627.87 213.007 630.653C210.525 635.551 207.762 640.296 205.042 645.064C199.72 642.934 188.891 637.047 183.396 638.454C178.2 639.786 172.63 647.886 169.831 652.203C168.221 654.685 166.441 658.188 167.411 661.239C168.594 664.96 183.198 671.838 187.312 674.164L182.543 682.534C178.496 689.866 174.149 697.062 169.95 704.309C167.852 704.166 165.949 704.095 163.962 703.329C161.03 699.702 158.138 660.077 158.018 653.239C165.951 639.1 174.747 625.464 182.768 611.362C196.796 586.699 210.297 561.324 226.441 537.973C243.682 513.037 263.956 490.948 284.659 468.926C306.011 446.214 327.77 423.638 352.47 404.487Z"/>
	<path fill="#FCDFD5" d="M430.167 529.863C462.312 555.01 501.303 571.11 538.411 587.333C527.274 591.437 516.539 596.885 505.584 601.485C501.42 603.292 497.115 604.764 492.846 606.302C465.349 589.255 424.007 577.067 401.298 555.209C410.602 546.512 420.441 538.096 430.167 529.863Z"/>
	<path fill="#FCDFD5" d="M799.886 195.837C800.84 193.464 802.053 192.326 804.399 191.287C805.185 190.939 805.976 190.689 806.8 190.452C819.956 193.661 833.09 199.438 845.859 204.08C866.936 211.742 888.724 218.924 909.062 228.417L907.234 233.911C895.89 230.719 884.876 226.277 873.726 222.469C861.153 218.175 848.162 214.378 835.802 209.545C834.852 209.173 835.289 209.226 834.408 209.302C836.196 211.432 895.318 235.037 904.807 239.937C901.913 247.428 898.667 254.738 895.528 262.125C875.395 252.687 854.671 244.762 834.078 236.413C813.331 228.002 792.859 219.211 771.796 211.584L775.327 204.447L784.69 199.65L785.965 205.243C789.392 207.564 792.269 208.838 796.453 208.072C798.967 207.611 801.724 206.274 803.212 204.122C804.073 202.877 804.364 201.62 803.936 200.148C803.556 198.844 802.465 197.819 801.442 197.01L799.886 195.837Z"/>
	<path fill="#FCDFD5" d="M916.398 121.96C922.627 122.797 930.964 126.263 936.442 129.438Q934.895 135.673 933.545 141.954C928.894 137.27 924.911 132.073 919.697 127.944C915.51 129.584 911.474 131.863 907.408 133.798C900.918 136.885 894.35 139.834 887.824 142.848Q858.423 156.367 828.525 168.747C794.291 182.858 759.639 196.009 725.474 210.263Q683.422 227.969 642.242 247.617Q617.18 259.653 592.677 272.791Q568.175 285.929 544.28 300.142Q520.385 314.354 497.145 329.615Q473.904 344.875 451.365 361.152Q423.535 381.682 396.667 403.456C389.549 408.862 382.957 414.931 375.81 420.315C379.221 415.577 382.569 410.548 386.577 406.303C391.965 400.598 398.423 395.651 404.465 390.641Q432.812 367.549 462.998 346.917C498.63 322.333 534.556 298.562 572.408 277.484C583.616 271.243 595.093 265.551 606.514 259.715C622.367 251.616 638.119 243.392 654.252 235.855C673.207 226.999 692.708 218.995 711.969 210.819C723.347 205.989 734.589 200.84 745.985 196.058C768.927 186.431 792.181 177.601 815.185 168.147Q847.022 154.983 878.231 140.391C891.096 134.41 903.945 128.797 916.398 121.96Z"/>
	<path fill="#E2697B" d="M563.394 311.397C568.057 312.245 575.709 317.256 580.09 319.605C581.465 327.704 582.223 335.914 583.448 344.04C586.193 362.25 590.28 378.963 596.823 396.186L575.376 407.217L571.607 409.352Q564.476 405.982 557.491 402.318C547.938 380.773 544.935 346.427 543.933 323.167C550.13 318.892 556.912 315.231 563.394 311.397Z"/>
	<path fill="#FCDFD5" d="M387.79 566.344C390.991 567.675 399.001 574.873 402.502 577.387C408.332 581.574 414.393 585.482 420.455 589.321C436.067 599.208 452.913 606.713 469.614 614.507Q451.666 621.165 433.378 626.822C427.982 628.469 422.746 630.501 417.48 632.516C410.062 627.123 401.454 622.76 393.45 618.267C380.89 611.218 368.368 604.207 356.1 596.648Q371.625 581.162 387.79 566.344Z"/>
	<path fill="#E2697B" d="M753.912 220.614L754.162 220.897C754.086 222.079 753.837 223.722 754.245 224.847C755.536 228.416 770.472 234.276 774.436 236.789L775.068 237.195Q781.002 271.961 789.009 306.309C782.39 309.038 775.844 311.792 769.32 314.75C766.492 315.992 763.81 317.527 761.101 319.005C757.778 317.743 754.496 316.342 751.202 315.006C749.334 307.396 748.371 299.331 747.09 291.582C743.51 269.926 740.846 248.131 737.675 226.413C742.952 224.108 748.439 222.384 753.912 220.614Z"/>
	<path fill="#E2697B" d="M407.106 415.477C404.949 445.001 408.18 475.968 417.085 504.228C418.747 508.604 420.197 513.296 422.269 517.484L423.396 520.59C414.815 527.864 406.017 534.862 397.473 542.194C381.485 515.62 379.182 469.638 379.586 439.34C386.903 431.213 398.299 422.082 407.106 415.477Z"/>
	<path fill="#FCDFD5" d="M605.266 403.444C606.739 403.432 608.224 404.383 609.545 405.016L737.75 467.051C734.021 470.611 730.181 474.072 726.399 477.577L721.512 475.512C711.288 471.221 701.307 466.364 691.222 461.759L637.154 437.356C619.848 429.645 601.842 423.221 584.834 414.888C591.325 410.695 598.512 407.241 605.266 403.444Z"/>
	<path fill="#FCDFD5" d="M465.153 373.458C468.883 374.779 472.645 377.721 476.344 379.413C493.174 387.114 509.895 395.136 526.823 402.612L624.157 444.897C654.293 458.33 684.006 472.614 713.936 486.478L707.832 491.25L704.218 493.971C679.874 480.803 653.99 469.648 628.824 458.094L535.247 414.717C513.059 404.455 490.663 394.586 468.82 383.599C467.078 379.501 466.024 378.174 462.41 375.564L462.471 374.975L465.153 373.458Z"/>
	<path fill="#E2697B" d="M719.864 233.051C721.298 234.581 721.48 242.27 721.777 244.742C724.285 265.63 726.539 286.717 731.401 307.219C723.144 303.78 714.992 300.053 706.823 296.411Q698.717 292.789 690.463 289.521C687.726 276.447 684.574 262.416 684.19 249.04C687.365 247.122 691.115 245.757 694.5 244.212Q707.074 238.387 719.864 233.051Z"/>
	<path fill="#E2697B" d="M424.503 421.73C433.48 426.433 442.598 430.957 451.37 436.033C453.305 453.763 458.994 469.985 466.089 486.225C461.991 489 458.087 491.959 454.186 494.998Q446.118 501.153 438.465 507.817C426.308 479.907 422.329 451.906 424.503 421.73Z"/>
	<path fill="#E2697B" d="M329.986 494.717C330.078 520.488 331.799 545.743 337.634 570.895L342.158 587.05L344.353 593.487C337.558 600.135 330.423 606.373 323.766 613.18C314.745 587.001 310.536 554.442 309.957 526.925C312.184 522.788 315.02 518.952 317.498 514.958C321.682 508.212 325.632 501.362 329.986 494.717Z"/>
	<path fill="#E2697B" d="M360.449 455.378C360.654 455.663 360.961 455.898 361.064 456.233C362.193 459.918 361.43 473.242 361.554 477.971Q361.935 489.218 363.284 500.391C365.886 520.87 371.024 539.758 380.193 558.316Q370.739 566.577 361.764 575.356L356.769 580.486C351.905 554.075 347.973 528.021 346.3 501.19C345.87 494.292 345.264 487.301 345.288 480.388C345.323 470.075 353.52 462.194 360.449 455.378Z"/>
	<path fill="#FCDFD5" d="M345.574 607.74C362.1 619.677 377.982 630.161 397.001 637.827C391.74 639.827 386.102 641.2 380.692 642.769C365.977 647.039 351.152 650.65 336.304 654.413C329.14 650.606 320.189 646.492 314.355 640.822C323.875 629.309 334.573 617.85 345.574 607.74Z"/>
	<path fill="#FCDFD5" d="M809.458 310.016C811.727 309.896 853.545 328.757 859.087 331.262Q851.082 343.156 842.388 354.556C837.8 353.085 833.333 351.042 828.876 349.212C809.869 340.982 790.81 332.604 771.585 324.905C783.63 319.041 796.875 314.611 809.458 310.016Z"/>
	<defs>
		<linearGradient id="gradient_0" gradientUnits="userSpaceOnUse" x1="553.34796" y1="449.67426" x2="539.65204" y2="472.82574">
			<stop offset="0" stop-color="#FFD9D0"/>
			<stop offset="1" stop-color="#FFE6D2"/>
		</linearGradient>
	</defs>
	<path fill="url(#gradient_0)" d="M429.646 400.115C437.788 403.499 445.753 408.632 453.582 412.762C467.443 420.075 481.584 427.046 495.627 434.01Q563.625 467.722 632.437 499.738C645.076 505.625 657.537 511.934 670.271 517.609C668.168 519.173 666.15 520.401 663.826 521.597C656.37 518.345 649.215 514.303 641.801 510.917Q578.04 482.025 515.391 450.794C484.611 435.705 453.27 421.93 423.282 405.242C425.335 403.461 427.518 401.808 429.646 400.115Z"/>
	<path fill="#E2697B" d="M598.503 328.276Q611.976 334.493 625.524 340.546C631.022 342.996 636.858 345.142 642.027 348.235C644.904 354.509 646.76 361.262 649.3 367.689C645.194 370.515 640.12 372.764 635.714 375.14C627.312 379.434 619.132 384.113 610.799 388.53C605.126 369.035 601.89 348.28 598.503 328.276Z"/>
	<path fill="#FCDFD5" d="M678.035 364.898C692.49 369.62 706.391 377.191 720.301 383.357C743.854 393.797 767.964 403.804 791.06 415.169C788.325 417.882 784.991 423.237 781.518 424.728C780.752 425.056 780.11 424.567 779.376 424.298C771.093 420.251 762.483 416.823 754.074 413.038L698.561 388.007C687.025 382.82 674.923 378.095 663.978 371.735C668.877 369.835 673.477 367.501 678.035 364.898Z"/>
	<path fill="#FCDFD5" d="M561.848 260.987C564.458 260.934 569.891 265.887 572.137 267.538C562.12 272.689 552.369 278.621 542.655 284.325Q497.331 311.326 454.147 341.633C451.027 340.74 446.823 336.68 444.04 334.71C458.717 322.342 475.79 311.827 491.966 301.471C514.178 287.25 537.84 271.712 561.848 260.987Z"/>
	<path fill="#FCDFD5" d="M575.64 295.12C591.908 303.878 609.126 311.415 625.864 319.268Q675.327 342.549 725.158 365.031C751.366 376.872 777.669 388.146 803.21 401.424C802.155 402.685 801.004 403.848 799.86 405.026C776.781 395.941 754.383 384.517 731.75 374.357L571.24 301.515L575.64 295.12Z"/>
	<path fill="#E2697B" d="M527.269 332.447C528.664 333.96 528.481 347.648 528.75 350.533C530.149 365.52 532.135 379.781 536.528 394.221C529.637 391.553 522.9 388.481 516.14 385.499C510.647 383.04 505.182 380.574 499.54 378.472C499.536 369.03 498.765 359.592 498.434 350.156C507.909 344.012 517.577 338.242 527.269 332.447Z"/>
	<path fill="#E2697B" d="M794.024 244.625C805.844 250.16 822.32 256.185 832.954 262.821C835.456 270.794 837.246 279.104 838.932 287.288L830.875 290.246C822.498 293.095 813.94 296.058 805.899 299.749C803.146 281.218 798.253 262.86 794.024 244.625Z"/>
	<path fill="#E2697B" d="M296.93 547.778C296.958 550.757 297.025 553.631 297.428 556.589Q297.545 563.623 298.528 570.589C298.737 573.402 299.186 576.154 299.641 578.935C301.86 592.842 305.024 607.107 309.713 620.398L311.171 626.524C306.126 632.971 300.465 639.051 295.089 645.23Q287.485 609.29 282.375 572.912C286.304 564.654 291.588 555.214 296.93 547.778Z"/>
	<path fill="#E2697B" d="M898.185 163.528L898.755 163.993C898.195 167.715 896.367 171.644 895.077 175.188Q889.421 190.766 882.955 206.025C870.037 202.243 857.312 197.142 844.478 192.969C839.077 191.04 833.558 189.405 828.09 187.68C834.918 185.625 841.593 182.833 848.347 180.52L898.185 163.528Z"/>
	<path fill="#FCDFD5" d="M237.442 642.801C253.932 651.483 271.461 658.678 288.523 666.174C277.566 669.131 265.824 670.73 254.646 672.707L218.134 679.265C219.621 676.806 220.755 674.274 221.906 671.648C222.346 671.63 222.787 671.619 223.226 671.585C228.041 671.212 235.319 670.585 238.558 666.558C239.557 665.315 240.161 663.742 239.791 662.129C238.851 658.026 233.64 656.087 230.319 654.407C232.514 650.456 235.06 646.645 237.442 642.801Z"/>
	<path fill="#E2697B" d="M274.31 583.363C274.614 583.746 274.803 583.93 274.963 584.45C276.199 588.464 277.207 601.385 277.954 606.394C279.566 617.221 281.939 627.827 284.003 638.564C284.616 641.755 287.361 652.174 286.528 654.435C285.228 654.72 285.083 654.474 283.868 653.872C281.889 651.346 281.698 646.834 281.015 643.687C278.58 632.468 276.462 621.399 274.782 610.042C273.836 603.639 273.589 596.482 271.945 590.278C271.284 591.596 271.491 593.46 271.47 594.943C273.388 614.321 275.908 633.29 280.956 652.126Q272.936 648.183 265.286 643.564C262.501 632.711 260.1 622.044 259.143 610.848C263.398 601.355 269.044 592.324 274.31 583.363Z"/>
	<defs>
		<linearGradient id="gradient_1" gradientUnits="userSpaceOnUse" x1="250.14633" y1="540.02209" x2="261.73083" y2="547.49561">
			<stop offset="0" stop-color="#FFE0CE"/>
			<stop offset="1" stop-color="#FFEED4"/>
		</linearGradient>
	</defs>
	<path fill="url(#gradient_1)" d="M313.467 468.484C313.77 468.828 313.586 468.566 313.716 469.411C306.181 483.271 294.067 494.79 283.81 506.62C271.907 520.348 260.03 534.927 249.7 549.863Q234.176 572.736 220.506 596.762C218.16 600.957 211.9 614.851 208.708 617.376L207.529 617.132C206.381 616.22 205.416 615.754 205.206 614.24C207.912 606.568 213.198 599.236 217.158 592.122Q221.92 583.515 227.015 575.101Q232.109 566.687 237.529 558.478Q242.949 550.269 248.686 542.279Q254.422 534.289 260.467 526.529Q266.512 518.769 272.855 511.251Q279.199 503.733 285.831 496.469Q292.464 489.206 299.376 482.206Q306.287 475.207 313.467 468.484Z"/>
	<path fill="#E2697B" d="M368.927 447.031C369.892 448.462 369.492 455.794 369.573 457.836C370.061 470.042 370.932 482.082 372.555 494.196C374.912 511.784 379.115 536.001 388.752 550.964L383.306 555.879L382.493 555.834C379.75 552.909 378.158 547.903 376.658 544.177C365.226 515.792 363.444 483.083 363.534 452.811L368.927 447.031Z"/>
	<path fill="#FCDFD5" d="M769.949 215.998C786.319 223.152 803.416 228.952 819.974 235.729C844.42 245.735 868.548 256.64 893.088 266.371L890.266 271.315Q856.426 256.791 822.422 242.652C804.013 235.196 784.99 228.321 766.987 219.955L769.949 215.998Z"/>
	<path fill="#FCDFD5" d="M133.077 626.227C137.666 628.369 144.056 636.737 145.757 641.656C147.722 647.34 147.35 654.724 147.833 660.744C149.361 679.799 150.377 710.227 156.927 727.671L153.015 734.759L150.563 739.652C142.2 711.452 145.326 680.735 140.359 651.911C138.834 643.06 136.14 634.646 133.077 626.227Z"/>
	<path fill="#FCDFD5" d="M843.944 296.461C852.336 302.151 862.543 306.392 871.567 311.173Q867.559 317.266 863.902 323.576C860.662 322.304 857.472 320.857 854.269 319.491C843.037 314.918 831.861 310.237 820.322 306.478C828.463 303.61 836.241 300.354 843.944 296.461Z"/>
	<path fill="#FCDFD5" d="M435.495 525.923C440.204 528.446 444.616 532.389 449.1 535.393C457.083 540.742 465.555 545.564 474.076 549.996C488.941 557.728 504.355 564.611 519.735 571.253C528.885 575.205 538.244 578.85 547.179 583.266L541.966 585.518L541.43 585.747C537.463 585.458 529.701 580.896 525.794 579.227C516.267 575.156 506.626 571.341 497.24 566.947C474.497 556.3 451.914 543.455 431.322 529.087C432.679 527.99 434.097 526.967 435.495 525.923Z"/>
	<path fill="#FCDFD5" d="M159.128 781.77C168.452 808.27 181.704 837.214 200.935 858.051C206.379 863.95 212.745 868.467 218.461 874.004L218.17 874.373L216.615 873.532C183.383 852.73 167.838 825.57 154.356 790.027L159.128 781.77Z"/>
	<path fill="#FCDFD5" d="M392.44 561.889C401.771 569.48 412.939 575.424 423.412 581.256Q439.118 590.159 455.2 598.362C460.672 601.123 476.177 607.951 479.577 611.015C479.098 611.982 477.479 612.387 476.491 612.841C475.91 612.999 475.407 613.162 474.795 613.21C471.552 613.468 464.932 609.593 461.868 608.179C436.084 596.277 411.798 582.753 389.293 565.33L392.44 561.889Z"/>
	<path fill="#E2697B" d="M728.091 229.47L728.553 229.531C730.446 232.99 735.163 275.268 736.285 282.906C737.619 291.989 739.137 301.607 741.452 310.488L741.007 311.009L738.817 310.201L734.99 308.072C728.682 283.047 725.554 257.091 722.75 231.468L728.091 229.47Z"/>
	<path fill="#E2697B" d="M339.299 568.456C336.337 552.966 329.776 505.7 333.047 491.799C333.494 489.901 334.792 488.161 335.858 486.556C337.099 496.563 337.175 506.791 337.845 516.856C338.519 527 339.79 537.165 341.241 547.223Q342.764 558.521 345.065 569.687C346.192 574.909 347.918 580.355 348.583 585.634C348.773 587.14 348.845 588.258 348.319 589.69L347.104 590.664L346.083 590.547C345.618 589.637 345.168 588.761 344.797 587.805C342.764 581.399 340.99 574.96 339.299 568.456Z"/>
	<path fill="#E2697B" d="M409.003 415.786C410.934 416.206 412.804 416.687 414.689 417.285C411.668 450.33 415.146 484.796 430.226 514.67C428.66 515.866 427.226 517.468 425.203 517.431C424.727 516.824 424.234 516.224 423.783 515.599C423.574 512.409 420.096 505.38 418.971 502.037C417.17 497.826 416.188 492.748 415.153 488.27C409.607 464.277 408.63 440.322 409.003 415.786Z"/>
	<path fill="#E2697B" d="M776.444 237.695C779.273 238.7 782.045 240.138 784.774 241.398C787.802 255.147 790.302 269.011 793.364 282.753C794.778 289.101 797.668 296.347 798.07 302.731L797.394 303.383C795.785 303.861 794.236 304.511 792.675 305.126C786.226 282.768 781.672 260.325 776.444 237.695Z"/>
	<path fill="#FCDFD5" d="M436.425 340.393C439.365 343.04 442.034 345.236 445.465 347.225Q425.415 361.722 406.269 377.393C404.397 379.083 402.269 380.576 400.277 382.128C404.592 374.302 413.204 358.501 419.299 352.692C424.298 347.929 430.678 344.197 436.425 340.393Z"/>
	<path fill="#E2697B" d="M470.117 444.604Q486.108 453.123 503.079 459.47L494.25 465.68C490.078 468.842 485.779 472.034 481.212 474.597C475.455 466.262 472.865 454.329 470.117 444.604Z"/>
	<path fill="#E2697B" d="M583.29 321.637C585.273 322.394 587.211 323.366 589.149 324.237C590.452 339.227 592.857 354.372 596.897 368.882C598.977 376.35 602.342 384.031 603.846 391.567C603.98 392.237 603.709 392.325 603.34 392.863C602.11 393.479 601.081 393.942 599.733 394.271C591.504 385.845 584.987 334.439 583.29 321.637Z"/>
	<path fill="#E2697B" d="M639.681 267.599C648.773 263.9 657.707 259.7 666.902 256.275C667.603 257.643 667.71 259.052 667.956 260.557C668.077 262.016 668.137 263.489 668.485 264.915C668.958 270.807 670.956 277.04 672.491 282.741C661.801 277.194 650.381 273.141 639.681 267.599Z"/>
	<path fill="#E2697B" d="M301.657 538.876C303.456 564.769 306.489 597.807 315.56 622.067C314.52 623.1 313.925 624.087 312.455 624.374C311.669 622.958 311.314 621.504 310.901 619.953C310.008 614.38 308.093 608.646 306.736 603.146C304.692 594.868 303.084 586.583 301.713 578.169L300.236 567.206C299.747 568.42 299.312 569.525 298.528 570.589Q297.545 563.623 297.428 556.589C297.585 554.688 297.72 553.139 298.498 551.384C298.352 546.179 298.789 543.387 301.657 538.876Z"/>
	<path fill="#37264B" d="M298.498 551.384C299.241 556.639 299.716 561.926 300.236 567.206C299.747 568.42 299.312 569.525 298.528 570.589Q297.545 563.623 297.428 556.589C297.585 554.688 297.72 553.139 298.498 551.384Z"/>
	<path fill="#E2697B" d="M534.762 327.942C536.562 332.666 535.727 343.35 535.992 348.761C536.542 359.983 538.718 370.573 540.488 381.614C541.045 385.085 545.081 394.504 544.126 397.174L542.126 396.671C541.615 396.408 541.138 396.202 540.713 395.789C534.554 389.815 530.61 340.45 530.424 330.517L534.762 327.942Z"/>
	<path fill="#FCDFD5" d="M347.696 606.195C348.211 604.979 348.144 604.842 349.3 604.25C354.623 606.012 362.913 612.925 368.335 616.021Q379.431 622.235 390.678 628.171C395.448 630.652 400.57 632.813 405.019 635.83C403.114 636.313 401.01 637.252 399.108 636.739C393.854 633.373 387.356 631.086 381.729 628.284C369.942 622.416 357.694 614.774 347.696 606.195Z"/>
	<path fill="#E2697B" d="M669.249 255.044Q673.301 253.208 677.266 251.192C677.641 262.859 679.183 274.492 680.459 286.09L674.77 283.506Q671.815 272.894 670.246 261.99L668.485 264.915C668.137 263.489 668.077 262.016 667.956 260.557C668.076 258.488 667.847 256.646 669.249 255.044Z"/>
	<path fill="#37264B" d="M667.956 260.557C668.076 258.488 667.847 256.646 669.249 255.044C669.982 257.324 670.069 259.617 670.246 261.99L668.485 264.915C668.137 263.489 668.077 262.016 667.956 260.557Z"/>
	<path fill="#E2697B" d="M454.372 437.555C456.211 438.273 458.02 439.279 459.807 440.132C461.359 449.958 463.471 459.522 466.633 468.965C467.878 472.686 471.955 479.138 471.801 482.811C470.814 483.352 470.057 483.665 468.949 483.874C461.782 477.392 455.735 448.051 454.372 437.555Z"/>
	<path fill="#E2697B" d="M836.884 265.103L844.725 267.779C845.29 271.762 848.666 281.323 847.669 284.582L842.262 286.102C840.574 279.08 838.984 272.015 836.884 265.103Z"/>
	<path fill="#FCDFD5" d="M307.627 649.361Q314.058 653.485 320.569 657.482C318.389 658.371 316.119 659.007 313.868 659.691L307.851 661.181C305.642 659.728 303.524 658.201 301.41 656.614C303.318 654.067 305.511 651.735 307.627 649.361Z"/>
	<path fill="#FCDFD5" d="M457.542 379.517C458.909 379.486 460.86 379.254 462.119 379.859C463.738 380.637 464.422 381.572 465.038 383.213C464.902 384.554 464.903 385.253 463.9 386.284C462.646 387.575 460.551 387.643 458.877 387.864C455.701 387.492 453.148 386.623 450.255 385.332C452.432 382.384 454.189 381.007 457.542 379.517Z"/>
	<path fill="#E2697B" d="M646.369 350.595C649.33 351.708 652.146 353.223 654.981 354.624C655.674 357.444 657.703 360.558 657.756 363.379L656.757 363.974L651.715 366.514C650.131 361.157 648.179 355.88 646.369 350.595Z"/>
	<path fill="#FCDFD5" d="M610.197 274.105C610.384 274.113 610.57 274.116 610.756 274.128C613.583 274.313 615.501 274.543 617.46 276.669C617.604 277.434 617.864 277.857 617.481 278.586C616.501 280.448 614.344 280.927 612.494 281.536C610.23 281.619 606.988 281.86 605.228 280.056C604.22 279.021 604.237 278.724 604.271 277.38C605.745 275.16 607.745 274.766 610.197 274.105Z"/>
	<path fill="#FE9899" d="M488.882 356.052C489.7 361.543 489.087 368.296 488.875 373.89L485.178 372.539C485.109 372.494 485.031 372.461 484.972 372.404C482.996 370.491 483.552 363.029 483.496 360.112C485.173 358.634 487.075 357.368 488.882 356.052Z"/>
	<path fill="#FCDFD5" d="M434.095 639.106C435.426 639.017 437.282 638.702 438.565 639.102C439.766 639.476 440.996 640.155 441.621 641.283C442.018 641.999 441.676 642.378 441.455 643.102C440.142 644.28 438.998 644.73 437.34 645.298C436.097 645.579 434.833 645.827 433.555 645.853C431.817 645.89 430.858 645.124 429.72 643.979C429.434 642.894 429.236 642.424 429.936 641.398C430.85 640.059 432.649 639.597 434.095 639.106Z"/>
	<path fill="#FCDFD5" d="M801.442 197.01C801.381 197.744 801.363 198.657 801.124 199.351C800.684 200.632 799.876 201.268 798.645 201.746C796.281 202.666 792.615 202.048 790.383 201.019C789.334 200.535 788.63 200.203 788.278 199.062C790.828 196.812 795.84 195.151 799.172 195.233L799.886 195.837L801.442 197.01Z"/>
	<path fill="#FCDFD5" d="M617.757 561.466L618.759 561.307C619.992 561.752 620.095 561.682 620.745 562.797C620.779 564.535 620.241 565.772 619.025 566.985C617.189 568.817 615.206 568.644 612.777 568.709C611.253 568.122 610.161 567.595 609.404 566.116L609.893 564.994C612.156 563.246 615.094 562.448 617.757 561.466Z"/>
	<path fill="#E2697B" d="M250.051 623.764C250.329 624.162 250.399 624.222 250.601 624.744C251.54 627.171 253.252 635.731 252.241 637.753L250.705 637.025L245.11 633.442C246.6 630.118 248.287 626.951 250.051 623.764Z"/>
	<path fill="#FEFEFE" d="M431.107 285.438C432.034 285.58 432.84 285.726 433.731 286.026C437.125 287.167 446.196 291.242 447.772 294.376C441.638 293.626 435.428 289.779 431.107 285.438Z"/>
	<path fill="#FCDFD5" d="M480.16 362.983L480.506 363.129C480.94 364.443 481.054 366.216 480.868 367.588C480.715 368.72 480.222 369.194 479.329 369.79L476.93 369.126C475.78 368.42 475.404 368.387 474.927 367.148C475.828 365.25 478.415 364.077 480.16 362.983Z"/>
</svg>
